<?xml version="1.0" encoding="utf-8"?>
<svg width="72.9mm" height="37.6mm" version="1.1" viewBox="9.862 6.457 53.176 24.692" xmlns="http://www.w3.org/2000/svg">
  <defs/>
  <g transform="translate(-2.12 21.1)">
    <g transform="matrix(.35 0 0 -.353 -65.8 155)">
      <g transform="matrix(1, 0, 0, 1, 236.274997, 452.534064)" style="fill:#1a1a1a">
        <path d="m0 0h9.56l-0.02-2.6h-6.54v-3.41h6v-2.62h-6v-5.25h-3z" style="fill:#1a1a1a"/>
      </g>
      <g transform="matrix(1, 0, 0, 1, 261.274998, 442.534064)" style="fill:#1a1a1a">
        <path d="m0 0c0.538-0.575 1.26-0.862 2.16-0.862 0.874 0 1.57 0.283 2.09 0.852 0.52 0.569 0.779 1.35 0.779 2.36v8.15h3v-8.15c0-1.22-0.237-2.27-0.713-3.16-0.475-0.893-1.16-1.58-2.04-2.06-0.886-0.483-1.93-0.723-3.14-0.723-1.2 0-2.26 0.24-3.16 0.723-0.9 0.482-1.59 1.17-2.07 2.06-0.482 0.891-0.722 1.94-0.722 3.16v8.15h3v-8.15c0-0.992 0.27-1.78 0.808-2.35" style="fill:#1a1a1a"/>
      </g>
      <g transform="matrix(1, 0, 0, 1, 281.274998, 452.534064)" style="fill:#1a1a1a">
        <path d="m0 0h11.1v-2.66h-4.07v-11.2h-3v11.2h-4.05z" style="fill:#1a1a1a"/>
      </g>
      <g transform="matrix(1, 0, 0, 1, 350.274999, 452.534064)" style="fill:#1a1a1a">
        <path d="m0 0h10.1v-2.6h-7.13v-3.01h6.4v-2.6h-6.4v-3.07h7.34v-2.6h-10.3z" style="fill:#1a1a1a"/>
      </g>
      <g transform="matrix(1, 0, 0, 1, 335.274999, 443.534064)" style="fill:#1a1a1a">
        <path d="m0 0c0.81 0.396 1.43 0.974 1.85 1.73 0.424 0.759 0.635 1.67 0.635 2.74 0 1.53-0.475 2.72-1.42 3.56-0.949 0.839-2.29 1.26-4.03 1.26h-5.78v-13.9h3v11.3h2.77c0.837 0 1.48-0.194 1.93-0.584 0.449-0.389 0.675-0.968 0.675-1.73 0-0.78-0.226-1.37-0.675-1.77s-1.09-0.604-1.93-0.604h-1.07l1.62-3.1 1.85-3.48h3.4z" style="fill:#1a1a1a"/>
      </g>
      <g transform="matrix(1, 0, 0, 1, 307.274998, 442.534064)" style="fill:#1a1a1a">
        <path d="m0 0c0.539-0.575 1.26-0.862 2.16-0.862 0.875 0 1.57 0.283 2.09 0.852s0.778 1.35 0.778 2.36v8.15h3v-8.15c0-1.22-0.237-2.27-0.713-3.16-0.475-0.893-1.16-1.58-2.04-2.06-0.887-0.483-1.93-0.723-3.14-0.723-1.2 0-2.26 0.24-3.15 0.723-0.901 0.482-1.59 1.17-2.07 2.06-0.483 0.891-0.723 1.94-0.723 3.16v8.15h3v-8.15c0-0.992 0.27-1.78 0.808-2.35" style="fill:#1a1a1a"/>
      </g>
      <g transform="matrix(1, 0, 0, 1, 232.274997, 480.534065)">
        <path d="m0 0v-9.92h-9.92v-3.93h13.9v13.8z" style="fill:#aa1124"/>
      </g>
      <g transform="matrix(1, 0, 0, 1, 222.274997, 424.534064)">
        <path d="m0 0v-3.93h9.92v-9.92h3.93v13.9z" style="fill:#aa1124"/>
      </g>
      <g transform="matrix(1, 0, 0, 1, 360.274999, 424.534064)">
        <path d="m0 0v-13.9h3.93v9.92h9.92v3.93z" style="fill:#aa1124"/>
      </g>
      <g transform="matrix(1, 0, 0, 1, 360.274999, 480.534065)">
        <path d="m0 0v-13.8h13.8v3.93h-9.92v9.92z" style="fill:#aa1124"/>
      </g>
    </g>
  </g>
</svg>